<?xml version="1.0" encoding="UTF-8" standalone="no"?>
<!-- Created with Inkscape (http://www.inkscape.org/) -->

<svg
   width="192"
   height="192"
   viewBox="0 0 50.799997 50.799999"
   version="1.1"
   id="svg1"
   xml:space="preserve"
   inkscape:version="1.4.2 (ebf0e940d0, 2025-05-08)"
   sodipodi:docname="logo.svg"
   inkscape:export-filename="logo.cfg.png"
   inkscape:export-xdpi="96"
   inkscape:export-ydpi="96"
   xmlns:inkscape="http://www.inkscape.org/namespaces/inkscape"
   xmlns:sodipodi="http://sodipodi.sourceforge.net/DTD/sodipodi-0.dtd"
   xmlns="http://www.w3.org/2000/svg"
   xmlns:svg="http://www.w3.org/2000/svg"><sodipodi:namedview
     id="namedview1"
     pagecolor="#ffffff"
     bordercolor="#000000"
     borderopacity="0.25"
     inkscape:showpageshadow="2"
     inkscape:pageopacity="0.0"
     inkscape:pagecheckerboard="0"
     inkscape:deskcolor="#d1d1d1"
     inkscape:document-units="mm"
     inkscape:zoom="2.8614198"
     inkscape:cx="60.284759"
     inkscape:cy="137.51915"
     inkscape:window-width="1854"
     inkscape:window-height="1011"
     inkscape:window-x="66"
     inkscape:window-y="32"
     inkscape:window-maximized="1"
     inkscape:current-layer="layer1"
     inkscape:export-bgcolor="#ffffffff" /><defs
     id="defs1" /><g
     inkscape:label="Calque 1"
     inkscape:groupmode="layer"
     id="layer1"
     transform="translate(-10.284103,1.3776994)"><g
       id="g9"
       transform="matrix(0.27382673,0,0,0.27382673,9.3217941,-1.0004485)"><g
         id="g5"
         transform="matrix(0.41341146,0,0,0.41341146,-9.5596466,-14.62353)"><path
           fill="none"
           stroke="#000000"
           stroke-linecap="round"
           stroke-linejoin="round"
           stroke-width="32"
           d="M 448,341.37 V 170.61 A 32,32 0 0 0 432.11,143 l -152,-88.46 a 47.94,47.94 0 0 0 -48.24,0 L 79.89,143 A 32,32 0 0 0 64,170.61 V 341.37 A 32,32 0 0 0 79.89,369 l 152,88.46 a 48,48 0 0 0 48.24,0 L 432.13,369 A 32,32 0 0 0 448,341.37 Z"
           id="path1-1" /><polyline
           fill="none"
           stroke="#000000"
           stroke-linecap="round"
           stroke-linejoin="round"
           stroke-width="32"
           points="69 153.99 256 263.99 443 153.99"
           id="polyline1" /><line
           fill="none"
           stroke="#000000"
           stroke-linecap="round"
           stroke-linejoin="round"
           stroke-width="32"
           x1="256"
           y1="463.98999"
           x2="256"
           y2="263.98999"
           id="line1" /><ellipse
           cx="256"
           cy="152"
           rx="24"
           ry="16"
           id="ellipse1" /><ellipse
           cx="208"
           cy="296"
           rx="16"
           ry="24"
           id="ellipse2" /><ellipse
           cx="112"
           cy="328"
           rx="16"
           ry="24"
           id="ellipse3" /><ellipse
           cx="304"
           cy="296"
           rx="16"
           ry="24"
           id="ellipse4" /><ellipse
           cx="400"
           cy="240"
           rx="16"
           ry="24"
           id="ellipse5" /><ellipse
           cx="304"
           cy="384"
           rx="16"
           ry="24"
           id="ellipse6" /><ellipse
           cx="400"
           cy="328"
           rx="16"
           ry="24"
           id="ellipse7" /></g><ellipse
         style="fill:#ffffff;fill-opacity:1;stroke-width:0.264583"
         id="path9"
         cx="97.290146"
         cy="51.260395"
         rx="15.691958"
         ry="14.645828" /></g><path
       fill="#000000"
       d="m 30.084343,5.3420791 -0.145797,0.5401996 c 0.725336,0.1958845 1.377745,0.4662248 1.960277,0.7994626 -0.636959,0.4718237 -1.057018,1.2785009 -1.057018,2.1948722 0,0.4069469 0.08293,0.7922491 0.230731,1.1362945 -0.653245,0.609687 -1.047948,1.478876 -1.047948,2.619691 0,2.116016 1.28305,3.943549 3.138996,4.820161 l -0.919396,2.106434 h 0.610016 l 0.826108,-1.892558 c 0.09011,0.03224 0.181124,0.06257 0.273333,0.09042 0.106579,0.08263 0.215135,0.157174 0.325365,0.224147 l -0.390091,1.578029 h 0.577203 l 0.327671,-1.326851 c 0.205255,0.07623 0.4144,0.126457 0.625702,0.1499 v 1.176918 h 0.559541 v -1.178237 c 0.235672,-0.02712 0.468529,-0.0879 0.696206,-0.181305 l 0.335664,1.359542 h 0.576307 l -0.402366,-1.629162 c 0.101788,-0.06653 0.202081,-0.139511 0.300458,-0.219837 0.0964,-0.03203 0.191542,-0.06664 0.285517,-0.103464 l 0.852034,1.952435 h 0.610015 l -0.952027,-2.181369 c 1.773104,-0.903079 2.986015,-2.687892 2.986015,-4.745228 0,-1.111117 -0.374527,-1.964527 -0.997533,-2.57158 0.161155,-0.3561417 0.252524,-0.758238 0.252524,-1.1843449 0,-0.9131072 -0.416976,-1.7172425 -1.050013,-2.1897821 0.587921,-0.3393174 1.240987,-0.6110341 1.957822,-0.8046139 L 41.283861,5.3420791 C 40.49769,5.5543994 39.780587,5.858358 39.135813,6.2402166 38.115405,5.6761858 36.824901,5.3970439 35.536853,5.3985406 c -1.2247,0.00151 -2.446829,0.2567183 -3.432535,0.7618621 -0.605556,-0.3411132 -1.27835,-0.6180385 -2.019913,-0.8182951 z m 5.452689,0.6406708 c 1.091117,-0.00135 2.184123,0.200735 3.056185,0.6091791 C 37.242657,7.5467101 36.260513,8.8732001 35.684745,10.4177 35.106136,8.8568541 34.108785,7.4880318 32.673948,6.5131908 33.506431,6.1616009 34.520819,5.9838887 35.537063,5.982631 Z M 33.034071,8.0297 c 0.580796,0 1.057709,0.4767016 1.057709,1.0574073 0,0.5807964 -0.476913,1.0575287 -1.057709,1.0575287 -0.580796,0 -1.057769,-0.4768225 -1.057769,-1.0576185 0,-0.5807367 0.476973,-1.0574095 1.057769,-1.0574095 z m 5.372065,0 c 0.580795,0 1.057708,0.4767016 1.057708,1.0574073 0,0.5807964 -0.476913,1.0575287 -1.057708,1.0575287 -0.580858,0 -1.057798,-0.4767017 -1.057798,-1.0574996 0,-0.5807348 0.47691,-1.0574077 1.057707,-1.0574077 z m -3.304491,2.415694 c 0.121308,0.309767 0.225222,0.628697 0.312073,0.955409 l 0.270341,1.016813 0.270338,-1.016813 c 0.08667,-0.325965 0.190644,-0.642829 0.311504,-0.949632 0.430808,0.642767 1.118064,1.059383 1.893155,1.059383 0.432305,0 0.837187,-0.13011 1.185783,-0.35614 -0.119841,2.121104 -0.567023,3.734041 -1.177758,4.832463 -0.717432,1.290447 -1.627128,1.864358 -2.500926,1.851244 -0.873707,-0.01312 -1.790468,-0.618876 -2.508887,-1.918243 -0.611695,-1.106327 -1.058608,-2.709776 -1.17818,-4.790972 0.357369,0.242078 0.776802,0.381589 1.225571,0.381589 0.777399,0 1.466479,-0.419132 1.896987,-1.065191 z m -3.750208,0.06427 c 0.01295,0.01827 0.02587,0.03653 0.03922,0.05437 0.06481,2.435003 0.550559,4.312742 1.276944,5.626598 0.109424,0.19789 0.224923,0.382728 0.345423,0.555349 -1.458577,-0.846105 -2.428924,-2.373898 -2.428924,-4.113295 0,-0.958793 0.276207,-1.631139 0.767369,-2.122991 z m 8.630572,0.04275 c 0.464936,0.487867 0.725277,1.149019 0.725277,2.080268 0,1.687604 -0.913588,3.17591 -2.300074,4.035758 0.08592,-0.129752 0.169151,-0.26606 0.248933,-0.409612 0.72339,-1.301104 1.207338,-3.177916 1.276197,-5.642496 0.01676,-0.02117 0.03359,-0.04221 0.04969,-0.06391 z m -7.110142,1.767896 c -0.112357,0.187502 -0.182502,0.434999 -0.182502,0.695759 0,0.600703 0.3621,1.07522 0.802937,1.07522 0.375121,0 0.699169,-0.346831 0.784673,-0.822245 -0.140468,0.122687 -0.31351,0.189807 -0.492658,0.189807 -0.47841,0 -0.880865,-0.497449 -0.91245,-1.138541 z m 5.565822,0.07416 c -0.03161,0.641062 -0.43398,1.138541 -0.912418,1.138541 -0.179179,0 -0.352161,-0.06712 -0.492719,-0.189806 0.08556,0.475415 0.409552,0.822276 0.784672,0.822276 0.440867,0 0.784673,-0.474517 0.784673,-1.07525 0,-0.260761 -0.05185,-0.508259 -0.164178,-0.695761 h -6e-5 z m -2.057635,0.867303 c -0.10508,0.392008 -0.428322,0.693963 -0.734377,0.693963 -0.298901,0 -0.617022,-0.301086 -0.716803,-0.673813 -0.02434,0.101696 -0.05245,0.210463 -0.05245,0.323209 0,0.575558 0.346981,1.030165 0.769345,1.030165 0.422365,0 0.769315,-0.454607 0.769315,-1.030165 0,-0.119333 -0.0078,-0.23651 -0.03497,-0.343388 h -6.1e-5 z m 1.049028,1.997043 c -0.10284,0.495531 -0.42536,0.868588 -0.821796,0.868588 -0.24669,0 -0.471584,-0.137715 -0.629417,-0.363624 0.02209,0.548641 0.361201,0.989808 0.769316,0.989808 0.422334,0 0.769286,-0.474877 0.769286,-1.050405 0,-0.161874 -0.03901,-0.307672 -0.08742,-0.444398 z m -3.461904,0.04032 c -0.03874,0.12478 -0.05245,0.26016 -0.05245,0.404071 0,0.575529 0.346979,1.050375 0.769316,1.050375 0.408143,0 0.729736,-0.441197 0.751831,-0.989839 -0.157833,0.225881 -0.382728,0.363627 -0.629446,0.363627 -0.386679,0 -0.727912,-0.351323 -0.839219,-0.828264 z"
       id="path1"
       style="stroke-width:0.029938" /></g></svg>
